<?xml version="1.0" encoding="UTF-8" standalone="no"?>
<!DOCTYPE svg PUBLIC "-//W3C//DTD SVG 1.1//EN" "http://www.w3.org/Graphics/SVG/1.1/DTD/svg11.dtd">
<!-- 由 Microsoft Visio, SVG Export 生成 有向无环图.svg Page-1 -->
<svg xmlns="http://www.w3.org/2000/svg" xmlns:xlink="http://www.w3.org/1999/xlink" xmlns:ev="http://www.w3.org/2001/xml-events"
		xmlns:v="http://schemas.microsoft.com/visio/2003/SVGExtensions/" width="8.26772in" height="11.6929in"
		viewBox="0 0 595.276 841.89" xml:space="preserve" color-interpolation-filters="sRGB" class="st9">
	<v:documentProperties v:langID="2052" v:metric="true" v:viewMarkup="false">
		<v:userDefs>
			<v:ud v:nameU="msvNoAutoConnect" v:val="VT0(1):26"/>
		</v:userDefs>
	</v:documentProperties>

	<style type="text/css">
	<![CDATA[
		.st1 {fill:#d8d8d8;stroke:#000000;stroke-linecap:round;stroke-linejoin:round;stroke-width:0.24}
		.st2 {fill:#000000;fill-opacity:1;stroke:#000000;stroke-opacity:1;stroke-width:0.08695652173913}
		.st3 {fill:#000000;font-family:宋体;font-size:0.916672em}
		.st4 {marker-end:url(#mrkr5-31);stroke:#000000;stroke-linecap:round;stroke-linejoin:round;stroke-width:0.75}
		.st5 {fill:#000000;fill-opacity:1;stroke:#000000;stroke-opacity:1;stroke-width:0.22935779816514}
		.st6 {marker-end:url(#mrkr5-57);stroke:#000000;stroke-linecap:round;stroke-linejoin:round;stroke-width:0.75}
		.st7 {fill:none;stroke:none;stroke-linecap:round;stroke-linejoin:round;stroke-width:0.75}
		.st8 {fill:#000000;font-family:宋体;font-size:1.00001em}
		.st9 {fill:none;fill-rule:evenodd;font-size:12px;overflow:visible;stroke-linecap:square;stroke-miterlimit:3}
	]]>
	</style>

	<defs id="Markers">
		<g id="lend5">
			<path d="M 2 1 L 0 0 L 1.98117 -0.993387 C 1.67173 -0.364515 1.67301 0.372641 1.98465 1.00043 " style="stroke:none"/>
		</g>
		<marker id="mrkr5-4" class="st2" v:arrowType="5" v:arrowSize="2" v:setback="20.125" refX="-20.125" orient="auto"
				markerUnits="strokeWidth" overflow="visible">
			<use xlink:href="#lend5" transform="scale(-11.5,-11.5) "/>
		</marker>
		<marker id="mrkr5-31" class="st5" v:arrowType="5" v:arrowSize="2" v:setback="7.63" refX="-7.63" orient="auto"
				markerUnits="strokeWidth" overflow="visible">
			<use xlink:href="#lend5" transform="scale(-4.36,-4.36) "/>
		</marker>
		<marker id="mrkr5-57" class="st5" v:arrowType="5" v:arrowSize="2" v:setback="7.15" refX="-7.15" orient="auto"
				markerUnits="strokeWidth" overflow="visible">
			<use xlink:href="#lend5" transform="scale(-4.36,-4.36) "/>
		</marker>
	</defs>
	<g v:mID="0" v:index="1" v:groupContext="foregroundPage">
		<title>页-1</title>
		<v:pageProperties v:drawingScale="0.0393701" v:pageScale="0.0393701" v:drawingUnits="24" v:shadowOffsetX="8.50394"
				v:shadowOffsetY="-8.50394"/>
		<v:layer v:name="流程图" v:index="0"/>
		<v:layer v:name="连接线" v:index="1"/>
		<g id="shape14-1" v:mID="14" v:groupContext="shape" transform="translate(89.5151,-429.673)">
			<title>圆形</title>
			<desc>去</desc>
			<v:userDefs>
				<v:ud v:nameU="visVersion" v:val="VT0(15):26"/>
			</v:userDefs>
			<v:textBlock v:margins="rect(4,4,4,4)" v:tabSpace="42.5197"/>
			<v:textRect cx="16.1873" cy="825.702" width="28.33" height="24.281"/>
			<path d="M0 825.7 A16.1873 16.1873 0 0 1 32.37 825.7 A16.1873 16.1873 0 1 1 0 825.7 Z" class="st1"/>
			<text x="10.69" y="829" class="st3" v:langID="2052"><v:paragraph v:horizAlign="1"/><v:tabList/>去</text>		</g>
		<g id="shape15-6" v:mID="15" v:groupContext="shape" transform="translate(143.15,-429.673)">
			<title>圆形.15</title>
			<desc>清</desc>
			<v:userDefs>
				<v:ud v:nameU="visVersion" v:val="VT0(15):26"/>
			</v:userDefs>
			<v:textBlock v:margins="rect(4,4,4,4)" v:tabSpace="42.5197"/>
			<v:textRect cx="16.1873" cy="825.702" width="28.33" height="24.281"/>
			<path d="M0 825.7 A16.1873 16.1873 0 0 1 32.37 825.7 A16.1873 16.1873 0 1 1 0 825.7 Z" class="st1"/>
			<text x="10.69" y="829" class="st3" v:langID="2052"><v:paragraph v:horizAlign="1"/><v:tabList/>清</text>		</g>
		<g id="shape16-10" v:mID="16" v:groupContext="shape" transform="translate(196.784,-429.673)">
			<title>圆形.16</title>
			<desc>华</desc>
			<v:userDefs>
				<v:ud v:nameU="visVersion" v:val="VT0(15):26"/>
			</v:userDefs>
			<v:textBlock v:margins="rect(4,4,4,4)" v:tabSpace="42.5197"/>
			<v:textRect cx="16.1873" cy="825.702" width="28.33" height="24.281"/>
			<path d="M0 825.7 A16.1873 16.1873 0 0 1 32.37 825.7 A16.1873 16.1873 0 1 1 0 825.7 Z" class="st1"/>
			<text x="10.69" y="829" class="st3" v:langID="2052"><v:paragraph v:horizAlign="1"/><v:tabList/>华</text>		</g>
		<g id="shape17-14" v:mID="17" v:groupContext="shape" transform="translate(250.419,-429.673)">
			<title>圆形.17</title>
			<desc>大</desc>
			<v:userDefs>
				<v:ud v:nameU="visVersion" v:val="VT0(15):26"/>
			</v:userDefs>
			<v:textBlock v:margins="rect(4,4,4,4)" v:tabSpace="42.5197"/>
			<v:textRect cx="16.1873" cy="825.702" width="28.33" height="24.281"/>
			<path d="M0 825.7 A16.1873 16.1873 0 0 1 32.37 825.7 A16.1873 16.1873 0 1 1 0 825.7 Z" class="st1"/>
			<text x="10.69" y="829" class="st3" v:langID="2052"><v:paragraph v:horizAlign="1"/><v:tabList/>大</text>		</g>
		<g id="shape18-18" v:mID="18" v:groupContext="shape" transform="translate(304.053,-429.673)">
			<title>圆形.18</title>
			<desc>学</desc>
			<v:userDefs>
				<v:ud v:nameU="visVersion" v:val="VT0(15):26"/>
			</v:userDefs>
			<v:textBlock v:margins="rect(4,4,4,4)" v:tabSpace="42.5197"/>
			<v:textRect cx="16.1873" cy="825.702" width="28.33" height="24.281"/>
			<path d="M0 825.7 A16.1873 16.1873 0 0 1 32.37 825.7 A16.1873 16.1873 0 1 1 0 825.7 Z" class="st1"/>
			<text x="10.69" y="829" class="st3" v:langID="2052"><v:paragraph v:horizAlign="1"/><v:tabList/>学</text>		</g>
		<g id="shape19-22" v:mID="19" v:groupContext="shape" transform="translate(357.688,-429.673)">
			<title>圆形.19</title>
			<desc>玩</desc>
			<v:userDefs>
				<v:ud v:nameU="visVersion" v:val="VT0(15):26"/>
			</v:userDefs>
			<v:textBlock v:margins="rect(4,4,4,4)" v:tabSpace="42.5197"/>
			<v:textRect cx="16.1873" cy="825.702" width="28.33" height="24.281"/>
			<path d="M0 825.7 A16.1873 16.1873 0 0 1 32.37 825.7 A16.1873 16.1873 0 1 1 0 825.7 Z" class="st1"/>
			<text x="10.69" y="829" class="st3" v:langID="2052"><v:paragraph v:horizAlign="1"/><v:tabList/>玩</text>		</g>
		<g id="shape21-26" v:mID="21" v:groupContext="shape" v:layerMember="1" transform="translate(121.89,-438.773)">
			<title>动态连接线</title>
			<path d="M0 834.8 L15.54 834.8" class="st4"/>
		</g>
		<g id="shape22-32" v:mID="22" v:groupContext="shape" v:layerMember="1" transform="translate(175.524,-438.773)">
			<title>动态连接线.22</title>
			<path d="M0 834.8 L15.54 834.8" class="st4"/>
		</g>
		<g id="shape23-37" v:mID="23" v:groupContext="shape" v:layerMember="1" transform="translate(229.159,-438.773)">
			<title>动态连接线.23</title>
			<path d="M0 834.8 L15.54 834.8" class="st4"/>
		</g>
		<g id="shape25-42" v:mID="25" v:groupContext="shape" v:layerMember="1" transform="translate(282.793,-438.773)">
			<title>动态连接线.25</title>
			<path d="M0 834.8 L15.54 834.8" class="st4"/>
		</g>
		<g id="shape26-47" v:mID="26" v:groupContext="shape" v:layerMember="1" transform="translate(336.428,-438.773)">
			<title>动态连接线.26</title>
			<path d="M0 834.8 L15.54 834.8" class="st4"/>
		</g>
		<g id="shape28-52" v:mID="28" v:groupContext="shape" v:layerMember="1" transform="translate(159.337,-422.586)">
			<title>动态连接线.28</title>
			<path d="M0 834.8 C0 845.43 15.76 853.45 29.17 853.45 C40.09 853.45 49.45 848.14 52.55 840.42 L52.61 840.07"
					class="st6"/>
		</g>
		<g id="shape29-58" v:mID="29" v:groupContext="shape" v:layerMember="1" transform="translate(159.337,-422.586)">
			<title>动态连接线.29</title>
			<path d="M0 834.8 C0 845.43 20.12 867.63 60.35 867.63 C95.17 867.63 145.06 851 157.83 839.63 L158.03 839.33"
					class="st6"/>
		</g>
		<g id="shape30-63" v:mID="30" v:groupContext="shape" v:layerMember="1" transform="translate(266.606,-454.961)">
			<title>动态连接线.30</title>
			<path d="M0 834.8 C-0 824.17 11.95 814.96 25.36 814.96 C36.36 814.96 48.33 821.15 52.28 829.24 L52.37 829.59"
					class="st6"/>
		</g>
		<g id="shape31-68" v:mID="31" v:groupContext="shape" transform="translate(89.5151,-467.717)">
			<title>工作表.31</title>
			<desc>0</desc>
			<v:textBlock v:margins="rect(4,4,4,4)" v:tabSpace="42.5197"/>
			<v:textRect cx="16.1873" cy="831.89" width="32.38" height="20"/>
			<rect x="0" y="821.89" width="32.3746" height="20" class="st7"/>
			<text x="13.19" y="835.49" class="st8" v:langID="2052"><v:paragraph v:horizAlign="1"/><v:tabList/>0</text>		</g>
		<g id="shape33-71" v:mID="33" v:groupContext="shape" transform="translate(143.15,-467.717)">
			<title>工作表.33</title>
			<desc>1</desc>
			<v:textBlock v:margins="rect(4,4,4,4)" v:tabSpace="42.5197"/>
			<v:textRect cx="16.1873" cy="831.89" width="32.38" height="20"/>
			<rect x="0" y="821.89" width="32.3746" height="20" class="st7"/>
			<text x="13.19" y="835.49" class="st8" v:langID="2052"><v:paragraph v:horizAlign="1"/><v:tabList/>1</text>		</g>
		<g id="shape36-74" v:mID="36" v:groupContext="shape" transform="translate(197.455,-467.717)">
			<title>工作表.36</title>
			<desc>2</desc>
			<v:textBlock v:margins="rect(4,4,4,4)" v:tabSpace="42.5197"/>
			<v:textRect cx="16.1873" cy="831.89" width="32.38" height="20"/>
			<rect x="0" y="821.89" width="32.3746" height="20" class="st7"/>
			<text x="13.19" y="835.49" class="st8" v:langID="2052"><v:paragraph v:horizAlign="1"/><v:tabList/>2</text>		</g>
		<g id="shape37-77" v:mID="37" v:groupContext="shape" transform="translate(251.09,-467.717)">
			<title>工作表.37</title>
			<desc>3</desc>
			<v:textBlock v:margins="rect(4,4,4,4)" v:tabSpace="42.5197"/>
			<v:textRect cx="16.1873" cy="831.89" width="32.38" height="20"/>
			<rect x="0" y="821.89" width="32.3746" height="20" class="st7"/>
			<text x="13.19" y="835.49" class="st8" v:langID="2052"><v:paragraph v:horizAlign="1"/><v:tabList/>3</text>		</g>
		<g id="shape38-80" v:mID="38" v:groupContext="shape" transform="translate(303.605,-467.717)">
			<title>工作表.38</title>
			<desc>4</desc>
			<v:textBlock v:margins="rect(4,4,4,4)" v:tabSpace="42.5197"/>
			<v:textRect cx="16.1873" cy="831.89" width="32.38" height="20"/>
			<rect x="0" y="821.89" width="32.3746" height="20" class="st7"/>
			<text x="13.19" y="835.49" class="st8" v:langID="2052"><v:paragraph v:horizAlign="1"/><v:tabList/>4</text>		</g>
		<g id="shape39-83" v:mID="39" v:groupContext="shape" transform="translate(357.24,-467.717)">
			<title>工作表.39</title>
			<desc>5</desc>
			<v:textBlock v:margins="rect(4,4,4,4)" v:tabSpace="42.5197"/>
			<v:textRect cx="16.1873" cy="831.89" width="32.38" height="20"/>
			<rect x="0" y="821.89" width="32.3746" height="20" class="st7"/>
			<text x="13.19" y="835.49" class="st8" v:langID="2052"><v:paragraph v:horizAlign="1"/><v:tabList/>5</text>		</g>
	</g>
</svg>
